<svg width="1200" height="420" viewBox="0 0 1200 420" fill="none" xmlns="http://www.w3.org/2000/svg">
  <defs>
    <linearGradient id="umattrBirdGold" x1="223" y1="105" x2="967" y2="279" gradientUnits="userSpaceOnUse">
      <stop offset="0" stop-color="#F0D78F"/>
      <stop offset="0.36" stop-color="#D9B866"/>
      <stop offset="0.7" stop-color="#C69B4B"/>
      <stop offset="1" stop-color="#A9782E"/>
    </linearGradient>
    <linearGradient id="umattrBirdHighlight" x1="600" y1="132" x2="600" y2="249" gradientUnits="userSpaceOnUse">
      <stop offset="0" stop-color="#FFF3C4" stop-opacity="0.88"/>
      <stop offset="1" stop-color="#FFF3C4" stop-opacity="0"/>
    </linearGradient>
  </defs>

  <g>
    <path
      d="M596.323 203.266C548.111 178.736 483.011 164.447 400.569 160.4C334.286 157.144 274.603 151.744 221.521 144.2C296.474 120.599 367.546 108.798 434.737 108.798C504.111 108.798 558.849 124.701 598.951 156.505C599.885 157.253 601.194 157.253 602.128 156.505C642.043 124.701 696.506 108.798 765.516 108.798C832.706 108.798 903.619 120.599 978.254 144.2C925.359 151.744 865.737 157.144 799.39 160.4C717.197 164.447 652.285 178.736 604.667 203.266C602.035 204.575 598.955 204.575 596.323 203.266Z"
      fill="url(#umattrBirdGold)"
    />
    <path
      d="M603.42 177.527C628.885 158.08 663.54 148.357 707.385 148.357C742.788 148.357 783.826 150.602 830.5 155.09C798.262 158.493 764.165 163.331 728.208 169.604C678.428 178.334 637.133 190.245 604.321 205.338C602.278 206.273 599.899 206.273 597.855 205.338C565.126 190.245 523.982 178.334 474.422 169.604C438.382 163.331 404.201 158.493 371.879 155.09C418.553 150.602 459.591 148.357 494.994 148.357C538.839 148.357 573.411 158.08 598.709 177.527C600.056 178.551 602.073 178.551 603.42 177.527Z"
      fill="url(#umattrBirdHighlight)"
    />
    <path
      d="M596.968 166.527C576.102 180.142 560.432 197.614 549.958 218.943C537.633 244.24 549.509 272.96 576.302 282.72C587.017 286.633 595.262 293.84 600.912 304.34C601.534 305.495 603.182 305.495 603.804 304.34C609.453 293.84 617.698 286.633 628.414 282.72C655.206 272.96 667.082 244.24 654.757 218.943C644.369 197.614 628.859 180.142 608.226 166.527C604.679 164.189 600.515 164.189 596.968 166.527Z"
      fill="url(#umattrBirdGold)"
    />
    <path
      d="M562.794 250.143C577.398 247.005 589.746 248.962 599.839 256.015C610.182 248.962 622.571 247.005 637.008 250.143C631.233 257.778 623.149 261.596 612.758 261.596H586.878C576.569 261.596 568.541 257.778 562.794 250.143Z"
      fill="#9E712B"
      fill-opacity="0.82"
    />
  </g>
</svg>
